<svg xmlns="http://www.w3.org/2000/svg" viewBox="0 0 460 340" fill="none" stroke="currentColor" stroke-width="14" stroke-linecap="butt" stroke-linejoin="miter" aria-label="FT monogram">
  <defs>
    <clipPath id="ft-f"><polygon points="-2,-2 232,-2 170,80 -2,80"/></clipPath>
    <clipPath id="ft-t"><polygon points="262,-2 200,80 470,80 470,-2"/></clipPath>
  </defs>
  <!-- F -->
  <g clip-path="url(#ft-f)">
    <path d="M7 340V7H240"/>
    <path d="M35 340V35H240"/>
    <path d="M63 340V63H240"/>
  </g>
  <path d="M7 80V340"/>
  <path d="M35 80V340"/>
  <path d="M63 80V340"/>
  <path d="M56 174H192"/>
  <path d="M56 202H180"/>
  <path d="M56 230H168"/>
  <!-- T -->
  <g clip-path="url(#ft-t)">
    <path d="M190 7H450"/>
    <path d="M190 35H450"/>
    <path d="M190 63H320"/>
  </g>
  <path d="M320 56V340"/>
  <path d="M348 84V340"/>
  <path d="M376 340V63H450"/>
</svg>
